<svg width="143" height="30" viewBox="0 0 143 30" fill="none" xmlns="http://www.w3.org/2000/svg">
<path d="M48.1158 21.0223V10.1865L43.3098 16.2385H42.6868L38.0365 10.142V21.0223H34.5655V5.44725C35.8783 5.44725 37.2355 5.44725 38.5483 5.44725L43.0873 11.4325L47.6485 5.44725H51.5868V21.0223H48.1158ZM62.3116 10.0085H65.8494L59.1076 25.9395H55.6144L57.8839 20.6662L53.2781 10.0085H56.8826L59.6194 16.9282L62.3116 10.0085ZM69.6277 21V8.51775H64.8884V5.425C69.4274 5.425 73.2544 5.425 77.8157 5.425V8.51775H73.0764V21H69.6277ZM78.1875 10.0307H81.169L81.4138 11.2322C82.148 10.2087 83.127 9.76375 84.3508 9.76375C85.3965 9.76375 86.2643 10.0752 87.043 10.765L85.708 13.3015C85.174 12.9232 84.6178 12.7452 83.9503 12.7452C82.5708 12.7452 81.3915 13.6352 81.3915 15.2818V21H78.1875V10.0307ZM96.3971 11.2767L96.5083 10.0085H99.5121C99.5121 13.6575 99.5121 17.351 99.5121 21H96.6196L96.4416 19.6205C95.7073 20.7775 94.1276 21.2225 93.0596 21.2448C89.7666 21.267 87.3858 19.131 87.3858 15.5042C87.3858 11.8552 89.9001 9.71925 93.1486 9.76375C94.5281 9.76375 95.8186 10.2977 96.3971 11.2767ZM93.4823 12.5895C91.8803 12.5895 90.5898 13.6797 90.5898 15.5042C90.5898 17.3287 91.8803 18.3967 93.4823 18.3967C95.2846 18.3967 96.3971 16.995 96.3971 15.6155C96.3971 14.0357 95.3958 12.5895 93.4823 12.5895ZM106.135 14.0357L107.426 17.6625L108.716 14.0357L110.296 10.0085H113.901L109.183 21.0668H105.668L100.951 10.0085H104.555L106.135 14.0357ZM125.654 16.55H117.578C117.733 17.618 118.757 18.4857 120.559 18.4857C121.427 18.4857 122.628 18.2855 123.407 17.618L125.209 19.6205C124.03 20.7775 122.139 21.2448 120.492 21.2448C116.51 21.2448 114.329 18.9085 114.329 15.393C114.329 12.0555 116.576 9.71925 120.159 9.71925C123.897 9.71925 126.344 12.0555 125.654 16.55ZM117.578 14.2137H122.784C122.717 13.0122 121.494 12.456 120.159 12.456C118.868 12.456 117.889 13.1235 117.578 14.2137ZM127.838 5.44725H131.02V21H127.838V5.44725ZM133.769 10.0307H136.751L136.995 11.2322C137.73 10.2087 138.709 9.76375 139.932 9.76375C140.978 9.76375 141.846 10.0752 142.625 10.765L141.29 13.3015C140.756 12.9232 140.199 12.7452 139.532 12.7452C138.152 12.7452 136.973 13.6352 136.973 15.2818V21H133.769V10.0307Z" fill="#009EE2"/>
<path d="M15.19 0H12.09C5.41288 0 0 5.41288 0 12.09V15.19C0 21.8671 5.41288 27.28 12.09 27.28H15.19C21.8671 27.28 27.28 21.8671 27.28 15.19V12.09C27.28 5.41288 21.8671 0 15.19 0Z" fill="#009EE2"/>
<path fill-rule="evenodd" clip-rule="evenodd" d="M18.79 10.96V18.72C18.7902 18.8307 18.7678 18.9403 18.724 19.042C18.6802 19.1436 18.616 19.2353 18.5354 19.3112C18.4548 19.3871 18.3595 19.4457 18.2554 19.4833C18.1513 19.5209 18.0405 19.5368 17.93 19.53V20.39C17.9358 20.5044 17.9174 20.6188 17.8763 20.7258C17.8351 20.8327 17.7719 20.9298 17.6909 21.0108C17.6099 21.0919 17.5127 21.155 17.4058 21.1962C17.2989 21.2374 17.1845 21.2557 17.07 21.25H16.21C16.0989 21.2501 15.9889 21.2277 15.8867 21.184C15.7845 21.1403 15.6923 21.0763 15.6156 20.9959C15.5389 20.9154 15.4794 20.8202 15.4406 20.7161C15.4018 20.6119 15.3846 20.501 15.39 20.39V19.53H11.94V20.39C11.9414 20.5033 11.92 20.6157 11.8773 20.7207C11.8346 20.8256 11.7713 20.921 11.6911 21.0011C11.611 21.0812 11.5157 21.1445 11.4107 21.1873C11.3058 21.23 11.1933 21.2513 11.08 21.25H10.22C10.1056 21.2557 9.99119 21.2374 9.88426 21.1962C9.77732 21.155 9.68021 21.0919 9.59917 21.0108C9.51814 20.9298 9.455 20.8327 9.41381 20.7258C9.37261 20.6188 9.3543 20.5044 9.36003 20.39V19.53C9.13792 19.5355 8.9225 19.4538 8.75989 19.3024C8.59729 19.151 8.50042 18.9419 8.49003 18.72V10.96C8.49266 10.2739 8.76638 9.61665 9.25153 9.1315C9.73668 8.64635 10.3939 8.37263 11.08 8.37H16.21C16.8952 8.37264 17.5514 8.64668 18.035 9.13212C18.5185 9.61755 18.79 10.2748 18.79 10.96ZM7.93003 11.82H8.39003V14.41H7.93003C7.82463 14.4027 7.7256 14.3569 7.65182 14.2813C7.57805 14.2057 7.53469 14.1055 7.53003 14V12.23C7.53678 12.1252 7.58081 12.0262 7.65418 11.951C7.72754 11.8758 7.82539 11.8293 7.93003 11.82ZM19.35 11.82H18.9V14.41H19.35C19.4572 14.4051 19.5587 14.3604 19.6345 14.2845C19.7104 14.2086 19.7552 14.1072 19.76 14V12.23C19.76 12.1213 19.7168 12.017 19.6399 11.9401C19.5631 11.8632 19.4588 11.82 19.35 11.82ZM17.93 10.96H9.36003V16.17H17.93V10.96ZM11.93 10.1H15.38L15 9.23H12.3L11.93 10.1ZM9.71003 17.17H10.71C10.97 17.17 11.12 17.32 11.12 17.52V18.23C11.12 18.43 10.97 18.58 10.71 18.58H9.71003C9.45003 18.58 9.30003 18.43 9.30003 18.23V17.52C9.30003 17.32 9.45003 17.17 9.71003 17.17ZM16.56 17.17H17.63C17.6764 17.1686 17.7225 17.1767 17.7656 17.1938C17.8087 17.2109 17.8478 17.2366 17.8806 17.2694C17.9134 17.3022 17.9391 17.3413 17.9562 17.3844C17.9733 17.4275 17.9814 17.4737 17.98 17.52V18.23C17.9814 18.2763 17.9733 18.3225 17.9562 18.3656C17.9391 18.4086 17.9134 18.4478 17.8806 18.4806C17.8478 18.5133 17.8087 18.5391 17.7656 18.5562C17.7225 18.5733 17.6764 18.5814 17.63 18.58H16.56C16.4604 18.5833 16.3631 18.5492 16.2872 18.4844C16.2114 18.4197 16.1624 18.3289 16.15 18.23V17.52C16.1624 17.421 16.2114 17.3303 16.2872 17.2656C16.3631 17.2008 16.4604 17.1667 16.56 17.17Z" fill="white"/>
</svg>
