<?xml version="1.0" encoding="UTF-8"?>
<svg width="59px" height="59px" viewBox="0 0 59 59" version="1.1" xmlns="http://www.w3.org/2000/svg" xmlns:xlink="http://www.w3.org/1999/xlink">
    <!-- Generator: Sketch 52.6 (67491) - http://www.bohemiancoding.com/sketch -->
    <title>Instagram</title>
    <desc>Created with Sketch.</desc>
    <g id="Page-1" stroke="none" stroke-width="1" fill="none" fill-rule="evenodd">
        <g id="Desktop-HD" transform="translate(-532.000000, -5346.000000)" fill="#fff" fill-rule="nonzero">
            <g id="Footer" transform="translate(-50.000000, 5331.000000)">
                <g id="Instagram" transform="translate(582.000000, 15.000000)">
                    <path d="M57.4497682,10.1676971 C56.6974498,8.22990726 55.6943586,6.58848532 54.0529366,4.94706337 C52.4115147,3.30564142 50.7700927,2.30255023 48.8323029,1.55023184 C46.9629057,0.820710974 44.7971406,0.319165379 41.6738794,0.182380216 C38.5278207,0.0455950541 37.5247295,0 29.5,0 C21.4752705,0 20.4721793,0.022797527 17.3261206,0.182380216 C14.1800618,0.319165379 12.0370943,0.820710974 10.1676971,1.55023184 C8.22990726,2.30255023 6.58848532,3.30564142 4.94706337,4.94706337 C3.30564142,6.58848532 2.30255023,8.22990726 1.55023184,10.1676971 C0.820710974,12.0370943 0.319165379,14.2028594 0.182380216,17.3261206 C0.0455950541,20.4721793 0,21.4752705 0,29.5 C0,37.5247295 0.022797527,38.5278207 0.182380216,41.6738794 C0.319165379,44.8199382 0.820710974,46.9629057 1.55023184,48.8323029 C2.30255023,50.7700927 3.30564142,52.4115147 4.94706337,54.0529366 C6.58848532,55.6943586 8.22990726,56.6974498 10.1676971,57.4497682 C12.0370943,58.179289 14.2028594,58.6808346 17.3261206,58.8176198 C20.4721793,58.9544049 21.4752705,59 29.5,59 C37.5247295,59 38.5278207,58.9772025 41.6738794,58.8176198 C44.8199382,58.6808346 46.9629057,58.179289 48.8323029,57.4497682 C50.7700927,56.6974498 52.4115147,55.6943586 54.0529366,54.0529366 C55.6943586,52.4115147 56.6974498,50.7700927 57.4497682,48.8323029 C58.179289,46.9629057 58.6808346,44.7971406 58.8176198,41.6738794 C58.9544049,38.5278207 59,37.5247295 59,29.5 C59,21.4752705 58.9772025,20.4721793 58.8176198,17.3261206 C58.6808346,14.1800618 58.179289,12.0370943 57.4497682,10.1676971 Z M53.505796,41.4231066 C53.3690108,44.2955951 52.8902628,45.8686244 52.4799073,46.8945131 C51.9555641,48.2623648 51.2944359,49.265456 50.2685471,50.2913447 C49.2426584,51.3172334 48.2623648,51.9555641 46.8717156,52.5027048 C45.8230294,52.9130603 44.2727975,53.3918083 41.4003091,53.5285935 C38.2770479,53.6653787 37.3651468,53.7109737 29.4772025,53.7109737 C21.5892581,53.7109737 20.6545595,53.6881762 17.5540958,53.5285935 C14.6816074,53.3918083 13.1085781,52.9130603 12.0826893,52.5027048 C10.7148377,51.9783617 9.71174652,51.3172334 8.68585781,50.2913447 C7.65996909,49.265456 7.02163833,48.2851623 6.47449768,46.8945131 C6.06414219,45.8458269 5.58539413,44.2955951 5.44860896,41.4231066 C5.3118238,38.2998454 5.26622875,37.3651468 5.26622875,29.5 C5.26622875,21.6348532 5.28902628,20.677357 5.44860896,17.5768934 C5.58539413,14.7044049 6.06414219,13.1313756 6.47449768,12.1054869 C6.9988408,10.7376352 7.65996909,9.73454405 8.68585781,8.70865533 C9.71174652,7.68276662 10.6920402,7.04443586 12.0826893,6.49729521 C13.1313756,6.08693972 14.6816074,5.60819165 17.5540958,5.47140649 C20.677357,5.33462133 21.6120556,5.28902628 29.4772025,5.28902628 C37.3423493,5.28902628 38.2998454,5.3118238 41.4003091,5.47140649 C44.2727975,5.60819165 45.8458269,6.08693972 46.8717156,6.49729521 C48.2395672,7.02163833 49.2426584,7.68276662 50.2685471,8.70865533 C51.2944359,9.73454405 51.9327666,10.7148377 52.4799073,12.1054869 C52.8902628,13.1541731 53.3690108,14.7044049 53.505796,17.5768934 C53.6425811,20.7001546 53.6881762,21.6348532 53.6881762,29.5 C53.6881762,37.3651468 53.6425811,38.322643 53.505796,41.4231066 Z" id="XMLID_142_"></path>
                    <path d="M30,14 C21.7218045,14 15,20.7218045 15,29 C15,37.2781955 21.7218045,44 30,44 C38.2781955,44 45,37.2781955 45,29 C45,20.7218045 38.2781955,14 30,14 Z M30,38.7443609 C24.6315789,38.7443609 20.2556391,34.3909774 20.2556391,29 C20.2556391,23.6315789 24.6090226,19.2556391 30,19.2556391 C35.3909774,19.2556391 39.7443609,23.6090226 39.7443609,29 C39.7443609,34.3684211 35.3684211,38.7443609 30,38.7443609 Z" id="XMLID_145_"></path>
                    <circle id="XMLID_143_" cx="45.5" cy="13.5" r="3.5"></circle>
                </g>
            </g>
        </g>
    </g>
</svg>
