<svg xmlns="http://www.w3.org/2000/svg" viewBox="0 0 147.22 27.28"><defs><style>.cls-1{font-size:22.25px;font-family:NexaHeavy, Nexa Heavy;letter-spacing:0.03em;}.cls-1,.cls-8{fill:#009ee2;}.cls-2{letter-spacing:-0.02em;}.cls-3{letter-spacing:-0.04em;}.cls-4{letter-spacing:0.01em;}.cls-5{letter-spacing:0.02em;}.cls-6{letter-spacing:0em;}.cls-7{letter-spacing:0em;}.cls-9{fill:#fff;fill-rule:evenodd;}</style></defs><g id="Calque_2" data-name="Calque 2"><g id="Calque_1-2" data-name="Calque 1"><text class="cls-1" transform="translate(32.83 20.08)">M<tspan class="cls-2" x="21.27" y="0">y</tspan><tspan class="cls-3" x="33.47" y="0">T</tspan><tspan class="cls-4" x="46.24" y="0">r</tspan><tspan class="cls-5" x="56.52" y="0">a</tspan><tspan class="cls-6" x="71.21" y="0">v</tspan><tspan class="cls-5" x="84.41" y="0">el</tspan><tspan class="cls-7" x="104.17" y="0">r</tspan></text><rect class="cls-8" width="27.28" height="27.28" rx="12.09"/><path class="cls-9" d="M18.79,9.79v7.76a.81.81,0,0,1-.86.81v.86a.82.82,0,0,1-.86.86h-.86a.82.82,0,0,1-.82-.86v-.86H11.94v.86a.85.85,0,0,1-.86.86h-.86a.82.82,0,0,1-.86-.86v-.86a.85.85,0,0,1-.87-.81V9.79A2.6,2.6,0,0,1,11.08,7.2h5.13a2.59,2.59,0,0,1,2.58,2.59Zm-10.86.86h.46v2.59H7.93a.43.43,0,0,1-.4-.41V11.06a.44.44,0,0,1,.4-.41Zm11.42,0H18.9v2.59h.45a.43.43,0,0,0,.41-.41V11.06a.41.41,0,0,0-.41-.41Zm-1.42-.86H9.36V15h8.57Zm-6-.86h3.45L15,8.06H12.3ZM9.71,16h1c.26,0,.41.15.41.35v.71c0,.2-.15.35-.41.35h-1c-.26,0-.41-.15-.41-.35v-.71c0-.2.15-.35.41-.35Zm6.85,0h1.07a.34.34,0,0,1,.35.35v.71a.34.34,0,0,1-.35.35H16.56a.4.4,0,0,1-.41-.35v-.71a.4.4,0,0,1,.41-.35Z"/></g></g></svg>